<mxfile host="app.diagrams.net" modified="2022-08-31T20:54:24.749Z" agent="5.0 (Macintosh; Intel Mac OS X 10_15_7) AppleWebKit/605.1.15 (KHTML, like Gecko) Version/15.4 Safari/605.1.15" etag="wmuchw2edmVmoCA1yRag" version="20.2.7" type="github">
  <diagram name="Page-1" id="12e1b939-464a-85fe-373e-61e167be1490">
    <mxGraphModel dx="903" dy="620" grid="1" gridSize="10" guides="1" tooltips="1" connect="1" arrows="1" fold="1" page="1" pageScale="1.5" pageWidth="1169" pageHeight="826" background="none" math="0" shadow="0">
      <root>
        <mxCell id="0" />
        <mxCell id="1" parent="0" />
        <mxCell id="ToKWYHOvLKqk_aItyE8u-1" value="STEP 11" style="shape=step;perimeter=stepPerimeter;whiteSpace=wrap;html=1;fixedSize=1;align=center;strokeWidth=2;fillColor=#440154;fontColor=#FFFFFF;strokeColor=none;" vertex="1" parent="1">
          <mxGeometry x="402" y="560" width="120" height="80" as="geometry" />
        </mxCell>
        <mxCell id="ToKWYHOvLKqk_aItyE8u-3" value="STEP 10" style="shape=step;perimeter=stepPerimeter;whiteSpace=wrap;html=1;fixedSize=1;align=center;strokeWidth=2;fillColor=#482475;fontColor=#FFFFFF;strokeColor=none;" vertex="1" parent="1">
          <mxGeometry x="282" y="560" width="120" height="80" as="geometry" />
        </mxCell>
        <mxCell id="ToKWYHOvLKqk_aItyE8u-4" value="STEP 9" style="shape=step;perimeter=stepPerimeter;whiteSpace=wrap;html=1;fixedSize=1;align=center;strokeWidth=2;fontColor=#FFFFFF;fillColor=#414487;strokeColor=none;" vertex="1" parent="1">
          <mxGeometry x="162" y="560" width="120" height="80" as="geometry" />
        </mxCell>
        <mxCell id="ToKWYHOvLKqk_aItyE8u-5" value="STEP 8" style="shape=step;perimeter=stepPerimeter;whiteSpace=wrap;html=1;fixedSize=1;align=center;strokeWidth=2;fillColor=#355F8D;fontColor=#FFFFFF;strokeColor=none;" vertex="1" parent="1">
          <mxGeometry x="522" y="440" width="120" height="80" as="geometry" />
        </mxCell>
        <mxCell id="ToKWYHOvLKqk_aItyE8u-6" value="STEP 7" style="shape=step;perimeter=stepPerimeter;whiteSpace=wrap;html=1;fixedSize=1;align=center;strokeWidth=2;fontColor=#FFFFFF;fillColor=#2A788E;strokeColor=none;" vertex="1" parent="1">
          <mxGeometry x="402" y="440" width="120" height="80" as="geometry" />
        </mxCell>
        <mxCell id="ToKWYHOvLKqk_aItyE8u-7" value="STEP 6" style="shape=step;perimeter=stepPerimeter;whiteSpace=wrap;html=1;fixedSize=1;align=center;strokeWidth=2;fillColor=#21918C;fontColor=#FFFFFF;strokeColor=none;" vertex="1" parent="1">
          <mxGeometry x="282" y="440" width="120" height="80" as="geometry" />
        </mxCell>
        <mxCell id="ToKWYHOvLKqk_aItyE8u-8" value="STEP 5" style="shape=step;perimeter=stepPerimeter;whiteSpace=wrap;html=1;fixedSize=1;align=center;strokeWidth=2;fillColor=#22A884;fontColor=#FFFFFF;strokeColor=none;" vertex="1" parent="1">
          <mxGeometry x="162" y="440" width="120" height="80" as="geometry" />
        </mxCell>
        <mxCell id="ToKWYHOvLKqk_aItyE8u-9" value="STEP 3" style="shape=step;perimeter=stepPerimeter;whiteSpace=wrap;html=1;fixedSize=1;align=center;strokeWidth=2;fillColor=#44BF70;strokeColor=none;" vertex="1" parent="1">
          <mxGeometry x="522" y="320" width="120" height="80" as="geometry" />
        </mxCell>
        <mxCell id="ToKWYHOvLKqk_aItyE8u-10" value="STEP 0" style="shape=step;perimeter=stepPerimeter;whiteSpace=wrap;html=1;fixedSize=1;align=center;strokeWidth=2;fillColor=#FDE725;strokeColor=none;" vertex="1" parent="1">
          <mxGeometry x="162" y="320" width="120" height="80" as="geometry" />
        </mxCell>
        <mxCell id="ToKWYHOvLKqk_aItyE8u-14" value="STEP 1" style="shape=step;perimeter=stepPerimeter;whiteSpace=wrap;html=1;fixedSize=1;align=center;strokeWidth=2;fillColor=#BDDF26;strokeColor=none;" vertex="1" parent="1">
          <mxGeometry x="282" y="320" width="120" height="80" as="geometry" />
        </mxCell>
        <mxCell id="ToKWYHOvLKqk_aItyE8u-18" value="STEP 2" style="shape=step;perimeter=stepPerimeter;whiteSpace=wrap;html=1;fixedSize=1;align=center;strokeWidth=2;fillColor=#7ad151;strokeColor=none;" vertex="1" parent="1">
          <mxGeometry x="402" y="320" width="120" height="80" as="geometry" />
        </mxCell>
        <mxCell id="ToKWYHOvLKqk_aItyE8u-19" value="STEP 4" style="shape=step;perimeter=stepPerimeter;whiteSpace=wrap;html=1;fixedSize=1;align=center;strokeWidth=2;fillColor=#bac8d3;strokeColor=#23445d;rounded=0;sketch=1;fontColor=#FFFFFF;" vertex="1" parent="1">
          <mxGeometry x="642" y="320" width="120" height="80" as="geometry" />
        </mxCell>
        <mxCell id="ToKWYHOvLKqk_aItyE8u-25" value="Pasos&lt;br&gt;5 a 8" style="shape=step;perimeter=stepPerimeter;whiteSpace=wrap;html=1;fixedSize=1;align=center;strokeWidth=2;fillColor=#22A884;gradientColor=#355F8D;gradientDirection=east;fontColor=#FFFFFF;rounded=0;strokeColor=none;" vertex="1" parent="1">
          <mxGeometry x="1050" y="380" width="120" height="80" as="geometry" />
        </mxCell>
        <mxCell id="ToKWYHOvLKqk_aItyE8u-26" value="Pasos&lt;br&gt;9 a 11" style="shape=step;perimeter=stepPerimeter;whiteSpace=wrap;html=1;fixedSize=1;align=center;strokeWidth=2;fontColor=#FFFFFF;fillColor=#414487;gradientColor=#440154;gradientDirection=east;rounded=0;strokeColor=none;" vertex="1" parent="1">
          <mxGeometry x="1230" y="380" width="120" height="80" as="geometry" />
        </mxCell>
        <mxCell id="ToKWYHOvLKqk_aItyE8u-24" value="Pasos&lt;br&gt;&amp;nbsp;0 a 4" style="shape=step;perimeter=stepPerimeter;whiteSpace=wrap;html=1;fixedSize=1;align=center;strokeWidth=2;fillColor=#FDE725;gradientColor=#44BF70;gradientDirection=east;rounded=0;strokeColor=none;fontColor=#FFFFFF;" vertex="1" parent="1">
          <mxGeometry x="870" y="380" width="120" height="80" as="geometry" />
        </mxCell>
      </root>
    </mxGraphModel>
  </diagram>
</mxfile>
